# xmcd
#
# Track frame offsets:
#	183
#	11180
#	23058
#	32633
#	45095
#	61590
#	72595
#	86150
#	96575
#	109055
#	120845
#	133680
#	145650
#	156000
#	167195
#	179655
#	190013
#	202900
#	214190
#	224475
#
# Disc length: 3127 seconds
#
# Revision: 5
# Processed by: cddbd v1.5.2PL0 Copyright (c) Steve Scherf et al.
# Submitted via: audiograbber 1.83.01
#
DISCID=1a0c3514
DTITLE=Various Artist - Country Gold
DYEAR=1989
DGENRE=Country
TTITLE0=Patsy Cline - Stop The World (And Let Me Off)
TTITLE1=Faron Young - I Heard The Jukebox Playing
TTITLE2=Johnny Cash - Rock Island Line
TTITLE3=Lester Flatt and Earl Scruggs - Doin' My Time
TTITLE4=Roger Miller - Honey
TTITLE5=Johnny Paycheck - Heartbreak, Tennessee
TTITLE6=Tillman Frank Singers - Your Cheatin' Heart
TTITLE7=Jerry Smith - Misty Blue (instrumental)
TTITLE8=Ferlin Husky - The Letter You Promised To Write
TTITLE9=Johnny Cash - You're The Nearest Thing To Heaven
TTITLE10=Jerry Wallace - Shutters And Boards
TTITLE11=Conway Twitty - Crazy Dreams
TTITLE12=Gelen Campbell - Walk Right In (instrumental)
TTITLE13=Jeannie C. Riley - Box Of Memories
TTITLE14=Charlie Rich - My Heart Cries For You
TTITLE15=Johnny Cash - Train Of Love
TTITLE16=George Jones - I Love You Because
TTITLE17=David Houston - Miss Brown
TTITLE18=Jan Howard - I Wish I Could Fall In Love Again
TTITLE19=Dave Dudley - Oh Lonesome Me
EXTD=
EXTT0=
EXTT1=
EXTT2=
EXTT3=
EXTT4=
EXTT5=
EXTT6=
EXTT7=
EXTT8=
EXTT9=
EXTT10=
EXTT11=
EXTT12=
EXTT13=
EXTT14=
EXTT15=
EXTT16=
EXTT17=
EXTT18=
EXTT19=
PLAYORDER=
